<svg width="19" height="19" viewBox="0 0 19 19" fill="none" xmlns="http://www.w3.org/2000/svg">
<path d="M8.70817 3.95832H4.74984C4.32991 3.95832 3.92718 4.12513 3.63025 4.42207C3.33332 4.719 3.1665 5.12173 3.1665 5.54165V14.25C3.1665 14.6699 3.33332 15.0726 3.63025 15.3696C3.92718 15.6665 4.32991 15.8333 4.74984 15.8333H13.4582C13.8781 15.8333 14.2808 15.6665 14.5778 15.3696C14.8747 15.0726 15.0415 14.6699 15.0415 14.25V10.2917M13.9221 2.8389C14.0681 2.68768 14.2429 2.56706 14.436 2.48408C14.6292 2.40109 14.837 2.35742 15.0472 2.35559C15.2574 2.35376 15.4659 2.39382 15.6605 2.47344C15.8551 2.55305 16.0319 2.67061 16.1805 2.81928C16.3292 2.96794 16.4468 3.14472 16.5264 3.33931C16.606 3.53389 16.6461 3.74239 16.6442 3.95262C16.6424 4.16286 16.5987 4.37062 16.5157 4.56379C16.4328 4.75697 16.3121 4.93168 16.1609 5.07774L9.36367 11.875H7.12484V9.63615L13.9221 2.8389Z" stroke="#374151" stroke-width="1.5" stroke-linecap="round" stroke-linejoin="round"/>
</svg>
