<svg width="36" height="36" viewBox="0 0 36 36" fill="none" xmlns="http://www.w3.org/2000/svg">
<g clip-path="url(#clip0_125_757)">
<path d="M13.5 18.0008H22.5" stroke="#4B5563" stroke-width="2.5" stroke-linecap="round" stroke-linejoin="round"/>
<path d="M13.5 22.5008H22.5" stroke="#4B5563" stroke-width="2.5" stroke-linecap="round" stroke-linejoin="round"/>
<path d="M7.875 5.62579H28.125C28.4234 5.62579 28.7095 5.74432 28.9205 5.9553C29.1315 6.16628 29.25 6.45242 29.25 6.75079V28.1258C29.25 29.0209 28.8944 29.8793 28.2615 30.5123C27.6286 31.1452 26.7701 31.5008 25.875 31.5008H10.125C9.22989 31.5008 8.37145 31.1452 7.73851 30.5123C7.10558 29.8793 6.75 29.0209 6.75 28.1258V6.75079C6.75 6.45242 6.86853 6.16628 7.07951 5.9553C7.29048 5.74432 7.57663 5.62579 7.875 5.62579Z" stroke="#4B5563" stroke-width="2.5" stroke-linecap="round" stroke-linejoin="round"/>
<path d="M11.25 3.37579V7.87579" stroke="#4B5563" stroke-width="2.5" stroke-linecap="round" stroke-linejoin="round"/>
<path d="M18 3.37579V7.87579" stroke="#4B5563" stroke-width="2.5" stroke-linecap="round" stroke-linejoin="round"/>
<path d="M24.75 3.37579V7.87579" stroke="#4B5563" stroke-width="2.5" stroke-linecap="round" stroke-linejoin="round"/>
</g>
<defs>
<clipPath id="clip0_125_757">
<rect width="36" height="36" fill="white"/>
</clipPath>
</defs>
</svg>
