<svg width="16" height="16" viewBox="0 0 16 16" fill="none" xmlns="http://www.w3.org/2000/svg">
<g clip-path="url(#clip0_125_659)">
<path d="M8 0.999878C6.54184 1.00161 5.1439 1.58163 4.11282 2.6127C3.08175 3.64378 2.50173 5.04172 2.5 6.49988C2.5 11.2059 7.5 14.7606 7.71289 14.9095C7.79709 14.9683 7.8973 14.9999 8 14.9999C8.1027 14.9999 8.20291 14.9683 8.28711 14.9095C8.5 14.7606 13.5 11.2059 13.5 6.49988C13.4983 5.04172 12.9183 3.64378 11.8872 2.6127C10.8561 1.58163 9.45816 1.00161 8 0.999878ZM8.00037 4.50006C8.39593 4.50006 8.78261 4.61736 9.11151 4.83712C9.4404 5.05688 9.69675 5.36924 9.84813 5.73469C9.9995 6.10014 10.0391 6.50228 9.96194 6.89024C9.88477 7.2782 9.69428 7.63457 9.41458 7.91427C9.13487 8.19398 8.77851 8.38446 8.39055 8.46163C8.00258 8.5388 7.60045 8.49919 7.235 8.34782C6.86955 8.19644 6.55719 7.9401 6.33743 7.6112C6.11766 7.2823 6.00037 6.89562 6.00037 6.50006C6.00036 6.23741 6.05208 5.97734 6.15259 5.73468C6.2531 5.49203 6.40042 5.27155 6.58614 5.08583C6.77185 4.90011 6.99234 4.75279 7.23499 4.65229C7.47764 4.55178 7.73772 4.50005 8.00037 4.50006Z" fill="#32B768"/>
</g>
<defs>
<clipPath id="clip0_125_659">
<rect width="16" height="16" fill="white"/>
</clipPath>
</defs>
</svg>
