<svg width="36" height="36" viewBox="0 0 36 36" fill="none" xmlns="http://www.w3.org/2000/svg">
<g clip-path="url(#clip0_125_198)">
<path d="M28.4999 13.065L20.5004 6.84302C19.7984 6.29688 18.9344 6.00037 18.0449 6.00037C17.1555 6.00037 16.2914 6.29688 15.5894 6.84302L7.58842 13.065C7.10759 13.4389 6.71856 13.9178 6.45106 14.465C6.18355 15.0123 6.04463 15.6134 6.04492 16.2225V27.0225C6.04492 27.8182 6.36099 28.5812 6.9236 29.1438C7.48621 29.7065 8.24927 30.0225 9.04492 30.0225H27.0449C27.8406 30.0225 28.6036 29.7065 29.1662 29.1438C29.7289 28.5812 30.0449 27.8182 30.0449 27.0225V16.2225C30.0449 14.988 29.4749 13.8225 28.4999 13.065Z" stroke="#4B5563" stroke-width="2.5" stroke-linecap="round" stroke-linejoin="round"/>
<path d="M24 22.5C20.685 24.4995 15.312 24.4995 12 22.5" stroke="#4B5563" stroke-width="2.5" stroke-linecap="round" stroke-linejoin="round"/>
</g>
<defs>
<clipPath id="clip0_125_198">
<rect width="36" height="36" fill="white"/>
</clipPath>
</defs>
</svg>
