<svg width="19" height="17" viewBox="0 0 19 17" fill="none" xmlns="http://www.w3.org/2000/svg">
<path d="M1 1.99982C1 1.44753 1.44772 0.999817 2 0.999817H17C17.5523 0.999817 18 1.44753 18 1.99982V11.818C18 12.3703 17.5523 12.818 17 12.818H12.486C12.1792 12.818 11.8893 12.9589 11.6997 13.2002L10.2863 14.999C9.88594 15.5086 9.11406 15.5086 8.71368 14.999L7.30028 13.2002C7.1107 12.9589 6.82083 12.818 6.51396 12.818H2C1.44772 12.818 1 12.3703 1 11.818V1.99982Z" stroke="#374151" stroke-width="1.5" stroke-linejoin="round"/>
<path d="M6 9.99982L6.83916 7.84597M12 9.99982L10.9091 7.84597M6.83916 7.84597L8.55423 3.44396C8.6186 3.27876 8.85017 3.27279 8.92296 3.43446L10.9091 7.84597M6.83916 7.84597H10.9091" stroke="#374151" stroke-width="1.5" stroke-linecap="round" stroke-linejoin="round"/>
</svg>
