<svg width="40" height="40" viewBox="0 0 40 40" fill="none" xmlns="http://www.w3.org/2000/svg">
<circle cx="20" cy="20" r="20" fill="#F9F9F9"/>
<g clip-path="url(#clip0_125_274)">
<path d="M17.5 27.5H22.5" stroke="#374151" stroke-width="1.5" stroke-linecap="round" stroke-linejoin="round"/>
<path d="M14.3909 18.125C14.3899 17.3837 14.5356 16.6496 14.8196 15.9649C15.1036 15.2803 15.5203 14.6586 16.0457 14.1357C16.5711 13.6128 17.1948 13.1991 17.8809 12.9184C18.5669 12.6377 19.3017 12.4955 20.0429 12.5001C23.1359 12.5231 25.6098 15.094 25.6098 18.1956V18.75C25.6098 21.5481 26.1953 23.1718 26.7109 24.0592C26.7664 24.154 26.796 24.2618 26.7965 24.3717C26.7971 24.4816 26.7687 24.5897 26.7142 24.6851C26.6597 24.7805 26.581 24.8599 26.486 24.9152C26.391 24.9704 26.2831 24.9997 26.1732 25H13.8269C13.717 24.9997 13.6091 24.9704 13.5142 24.9151C13.4192 24.8599 13.3404 24.7805 13.2859 24.6851C13.2314 24.5896 13.203 24.4815 13.2036 24.3716C13.2042 24.2617 13.2338 24.1539 13.2894 24.0591C13.8053 23.1716 14.3909 21.5479 14.3909 18.75L14.3909 18.125Z" stroke="#374151" stroke-width="1.5" stroke-linecap="round" stroke-linejoin="round"/>
</g>
<circle cx="34" cy="6" r="6" fill="#F24F4F"/>
<path d="M33.5852 9.07955C34.7727 9.07955 35.6449 8.36932 35.642 7.40341C35.6449 6.66761 35.1989 6.1392 34.4261 6.01989V5.97443C35.0341 5.81818 35.429 5.34091 35.4261 4.6875C35.429 3.83239 34.7273 3.10227 33.608 3.10227C32.5398 3.10227 31.6818 3.74716 31.6534 4.69318H32.5028C32.5227 4.15909 33.0256 3.83523 33.5966 3.83523C34.1903 3.83523 34.5795 4.19602 34.5767 4.73295C34.5795 5.29545 34.1278 5.66477 33.483 5.66477H32.9915V6.38068H33.483C34.2898 6.38068 34.7557 6.78977 34.7557 7.375C34.7557 7.94034 34.2642 8.32386 33.5795 8.32386C32.9489 8.32386 32.4574 8 32.4233 7.48295H31.5312C31.5682 8.43182 32.4091 9.07955 33.5852 9.07955Z" fill="#F9F9F9"/>
<defs>
<clipPath id="clip0_125_274">
<rect width="20" height="20" fill="white" transform="translate(10 10)"/>
</clipPath>
</defs>
</svg>
