<svg width="290" height="298" viewBox="0 0 290 298" fill="none" xmlns="http://www.w3.org/2000/svg">
<path d="M71.9151 39.806C84.4237 6.58347 109.005 0.52084 122.725 0.52955C162.358 0.538261 177.663 13.491 203.124 42.6283C227 69.9536 244.038 65.8335 257.749 76.3212C280.1 93.4289 292.801 152.487 249.5 188.602C188.116 239.812 148.682 242.922 95.6343 226.389C59.8596 215.239 29.8774 184.769 29.1544 151.033C27.7607 85.8506 58.3875 75.7375 71.9151 39.806Z" fill="#B3FFD1"/>
<path d="M262.557 72.2359L262.391 72.1749C260.91 71.6174 260.161 69.9711 260.71 68.4903L273.602 33.996C274.159 32.5152 275.806 31.7661 277.286 32.3149L277.452 32.3758C278.933 32.9333 279.682 34.5796 279.133 36.0604L266.241 70.5547C265.684 72.0356 264.038 72.7934 262.557 72.2359Z" fill="#EDB82C"/>
<path d="M258.245 67.7588L258.079 67.7066C256.564 67.271 255.684 65.6857 256.119 64.1613L266.964 26.3657C267.4 24.85 268.985 23.9702 270.509 24.4058L270.675 24.458C272.19 24.8936 273.07 26.4789 272.635 28.0033L261.781 65.7989C261.346 67.3233 259.76 68.1944 258.245 67.7588Z" fill="#EDB82C"/>
<path d="M256.433 78.0896L256.267 78.0286C254.786 77.4711 254.037 75.8248 254.586 74.344L268.358 37.5152C268.915 36.0344 270.561 35.2853 272.042 35.8341L272.208 35.8951C273.689 36.4525 274.438 38.0989 273.889 39.5797L260.117 76.4084C259.569 77.8979 257.914 78.6471 256.433 78.0896Z" fill="#EDB82C"/>
<path d="M253.541 63.7953L253.375 63.7431C251.859 63.3075 250.98 61.7222 251.415 60.1978L262.26 22.4022C262.695 20.8865 264.281 20.0067 265.805 20.4423L265.971 20.4945C267.486 20.9301 268.366 22.5154 267.931 24.0398L257.086 61.8354C256.65 63.3598 255.065 64.2309 253.541 63.7953Z" fill="#EDB82C"/>
<path d="M249.413 66.5654L249.238 66.5393C247.679 66.278 246.625 64.7972 246.886 63.238L253.419 24.4667C253.681 22.9075 255.162 21.8535 256.721 22.1148L256.895 22.141C258.454 22.4023 259.508 23.8831 259.247 25.4423L252.714 64.2136C252.453 65.7728 250.972 66.8268 249.413 66.5654Z" fill="#EDB82C"/>
<path d="M245.971 69.44L245.797 69.4225C244.221 69.2745 243.071 67.872 243.219 66.3041L246.956 27.1583C247.104 25.5817 248.506 24.4319 250.074 24.58L250.248 24.5974C251.825 24.7455 252.975 26.1479 252.827 27.7158L249.09 66.8616C248.942 68.4382 247.539 69.588 245.971 69.44Z" fill="#EDB82C"/>
<path d="M253.802 61.4696L253.628 61.4434C252.069 61.1821 251.015 59.7013 251.276 58.1421L257.809 19.3708C258.07 17.8116 259.551 16.7576 261.11 17.019L261.285 17.0451C262.844 17.3064 263.898 18.7872 263.637 20.3464L257.104 59.1177C256.834 60.6856 255.361 61.7396 253.802 61.4696Z" fill="#EDB82C"/>
<path d="M240.379 72.6279L240.204 72.6105C238.628 72.4624 237.478 71.06 237.626 69.4921L241.363 30.3463C241.511 28.7697 242.913 27.6199 244.481 27.768L244.656 27.7854C246.232 27.9335 247.382 29.3359 247.234 30.9038L243.497 70.0496C243.349 71.6262 241.947 72.776 240.379 72.6279Z" fill="#EDB82C"/>
<path d="M237.853 67.5237L237.679 67.5149C236.102 67.454 234.874 66.1212 234.935 64.5359L236.511 25.2507C236.572 23.6741 237.905 22.4459 239.49 22.5069L239.665 22.5156C241.241 22.5766 242.47 23.9093 242.409 25.4946L240.832 64.7798C240.762 66.3564 239.43 67.5933 237.853 67.5237Z" fill="#EDB82C"/>
<path d="M275.266 53.4208C275.458 52.2623 274.926 51.1648 273.829 50.1282C273.881 50.7902 273.846 51.4522 273.689 52.0968C272.322 58.0026 262.731 60.8162 252.287 58.3859C241.834 55.9556 234.483 49.2048 235.85 43.299C235.998 42.6718 236.242 42.0795 236.564 41.522C235.179 41.975 234.247 42.7154 233.916 43.8129L230.929 80.7375C230.911 80.9988 230.929 81.2514 230.972 81.4953C230.972 81.504 230.963 81.5127 230.963 81.5127C230.502 83.5075 236.878 86.6869 245.205 88.6207C251.468 90.0753 257.043 90.4064 259.63 89.6398C259.665 89.6311 259.691 89.6224 259.726 89.605C260.405 89.3872 260.867 89.091 261.059 88.7078C261.277 88.4552 261.459 88.1764 261.581 87.8541L275.266 53.4208Z" fill="#E06738"/>
<path d="M45.3142 90.835L29.5044 94.2322L25.2884 95.1381L9.47852 98.5353L24.426 146.453C24.426 146.488 24.4173 146.522 24.426 146.557C24.7832 148.204 31.1071 148.238 38.5548 146.636C46.0024 145.033 51.7601 142.402 51.403 140.765C51.3943 140.73 51.3682 140.704 51.3595 140.669L45.3142 90.835Z" fill="#E06738"/>
<path d="M45.6055 79.1971L27.2695 83.1343L22.3828 84.1883L4.04688 88.1255L21.3811 143.708C21.3811 143.743 21.3724 143.787 21.3811 143.83C21.7905 145.738 29.1249 145.781 37.7659 143.917C46.4069 142.053 53.0793 139.013 52.6699 137.106C52.6612 137.071 52.635 137.036 52.6176 137.001L45.6055 79.1971Z" fill="#FDF0B9"/>
<path d="M38.6544 100.207L38.245 100.233C37.3914 100.294 36.6423 99.6585 36.5813 98.7962L35.5621 85.0595C35.5012 84.2058 36.1371 83.4567 36.9994 83.3957L37.4088 83.3696C38.2625 83.3086 39.0116 83.9445 39.0725 84.8068L40.0917 98.5436C40.144 99.3972 39.5081 100.146 38.6544 100.207Z" fill="black"/>
<path d="M26.1158 89.6917C38.9328 86.9387 48.6719 81.6757 47.8688 77.9364C47.0656 74.1972 36.0243 73.3976 23.2073 76.1506C10.3902 78.9035 0.651088 84.1665 1.45425 87.9058C2.25741 91.6451 13.2987 92.4447 26.1158 89.6917Z" fill="#E06738"/>
<mask id="mask0_125_114" style="mask-type:alpha" maskUnits="userSpaceOnUse" x="8" y="86" width="42" height="57">
<path d="M43.6596 86.6153L28.3645 89.9229L24.2882 90.8083L8.99316 94.1159L23.4526 140.81C23.4526 140.839 23.4454 140.876 23.4526 140.913C23.7942 142.515 29.9122 142.552 37.1201 140.986C44.3281 139.42 49.8939 136.866 49.5524 135.263C49.5451 135.234 49.5233 135.205 49.5088 135.176L43.6596 86.6153Z" fill="#A03AB4"/>
</mask>
<g mask="url(#mask0_125_114)">
<path d="M10.2314 102.951C10.2314 102.951 15.2575 95.852 19.6303 96.3746C24.0117 96.8973 24.848 98.3694 30.7538 96.7056C36.6596 95.0332 37.3042 91.8973 42.8094 92.5071C46.6682 92.9339 51.0148 96.6969 51.0148 96.6969L54.2291 146.383L20.3445 153.665L10.2314 102.951Z" fill="#EDB82C"/>
</g>
<path d="M36.747 53.6313C36.7644 53.7184 36.7731 53.7968 36.7819 53.8839L37.8881 68.8489L38.6895 79.5805C37.6355 80.0683 36.4857 80.5386 35.2662 81.0003L34.369 68.8402L33.2889 54.1366C33.2192 53.1697 33.9335 52.3247 34.9091 52.255C35.7801 52.1941 36.5641 52.7951 36.747 53.6313Z" fill="black"/>
<mask id="mask1_125_114" style="mask-type:alpha" maskUnits="userSpaceOnUse" x="29" y="0" width="250" height="236">
<path d="M71.9151 39.806C84.4237 6.58347 109.005 0.52084 122.725 0.52955C162.358 0.538261 177.663 13.491 203.124 42.6283C227 69.9536 244.038 65.8335 257.749 76.3212C280.1 93.4289 292.801 152.487 249.5 188.602C188.116 239.812 148.682 242.922 95.6343 226.389C59.8596 215.239 29.8774 184.769 29.1544 151.033C27.7607 85.8506 58.3875 75.7375 71.9151 39.806Z" fill="#FFF3F3"/>
</mask>
<g mask="url(#mask1_125_114)">
<path d="M106.488 53.6647H185.624C194.474 53.6647 201.652 60.8423 201.652 69.6923V235.814C201.652 244.664 194.474 251.841 185.624 251.841H106.488C97.6376 251.841 90.46 244.664 90.46 235.814V69.6836C90.46 60.8336 97.6376 53.6647 106.488 53.6647Z" fill="black"/>
<path d="M108.448 60.8597H183.656C189.614 60.8597 194.448 65.6941 194.448 71.6522V233.845C194.448 239.803 189.614 244.638 183.656 244.638H108.448C102.49 244.638 97.6553 239.803 97.6553 233.845V71.6522C97.6553 65.6854 102.49 60.8597 108.448 60.8597Z" fill="#32B768"/>
<path d="M110.408 102.532H181.696C184.405 102.532 186.6 104.727 186.6 107.436V149.291C186.6 152 184.405 154.195 181.696 154.195H110.408C107.699 154.195 105.503 152 105.503 149.291V107.436C105.503 104.727 107.699 102.532 110.408 102.532Z" fill="white"/>
<path d="M110.408 161.39H181.696C184.405 161.39 186.6 163.585 186.6 166.294V182.644C186.6 185.353 184.405 187.548 181.696 187.548H110.408C107.699 187.548 105.503 185.353 105.503 182.644V166.294C105.503 163.585 107.699 161.39 110.408 161.39Z" fill="white"/>
<path d="M110.408 194.743H181.696C184.405 194.743 186.6 196.938 186.6 199.647V215.997C186.6 218.706 184.405 220.901 181.696 220.901H110.408C107.699 220.901 105.503 218.706 105.503 215.997V199.647C105.503 196.938 107.699 194.743 110.408 194.743Z" fill="white"/>
<mask id="mask2_125_114" style="mask-type:alpha" maskUnits="userSpaceOnUse" x="97" y="60" width="98" height="185">
<path d="M108.448 60.8597H183.656C189.614 60.8597 194.448 65.6941 194.448 71.6522V233.845C194.448 239.803 189.614 244.638 183.656 244.638H108.448C102.49 244.638 97.6553 239.803 97.6553 233.845V71.6522C97.6553 65.6854 102.49 60.8597 108.448 60.8597Z" fill="white"/>
</mask>
<g mask="url(#mask2_125_114)">
<path d="M110.408 228.096H181.696C184.405 228.096 186.6 230.291 186.6 233V249.35C186.6 252.059 184.405 254.254 181.696 254.254H110.408C107.699 254.254 105.503 252.059 105.503 249.35V233C105.503 230.3 107.699 228.096 110.408 228.096Z" fill="#32B768"/>
</g>
<path d="M173.011 107.819H121.453C120.991 110.632 121.453 118.646 121.453 118.646C121.453 123.15 132.994 126.799 147.236 126.799C161.478 126.799 173.02 123.15 173.02 118.646C173.36 112.261 173.011 107.819 173.011 107.819Z" fill="#EDB82C"/>
<path d="M172.367 106.512C174.814 106.382 176.809 108.96 175.99 110.528C175.163 112.096 172.114 113.272 171.112 113.568C168.821 114.247 170.476 117.767 166.165 116.721C163.935 116.181 163.273 117.697 162.036 118.908C160.799 120.118 157.497 119.274 154.405 117.932C151.313 116.599 148.63 120.362 145.633 119.997C142.646 119.631 139.963 118.176 138.003 118.908C136.043 119.639 134.911 118.908 132.533 116.599C130.163 114.291 127.785 117.453 125.625 116.599C123.456 115.746 124.284 113.681 121.914 112.592C119.545 111.504 117.167 111.094 117.167 109.735C117.167 106.66 121.871 105.894 121.871 105.894L172.367 106.512Z" fill="#E06738"/>
<path d="M173.011 103.002C173.011 112.444 161.469 114.509 147.227 114.509C132.985 114.509 121.444 112.453 121.444 103.002C121.444 93.551 132.985 85.8943 147.227 85.8943C161.469 85.8943 173.011 93.551 173.011 103.002Z" fill="#EDB82C"/>
<path d="M164.701 73.2188H128.647C127.654 73.2188 126.844 72.4087 126.844 71.4157C126.844 70.4227 127.654 69.6126 128.647 69.6126H164.701C165.694 69.6126 166.504 70.4227 166.504 71.4157C166.504 72.4087 165.694 73.2188 164.701 73.2188Z" fill="#0E7F3D"/>
<path d="M170.084 140.449H123.256C122.263 140.449 121.453 139.639 121.453 138.646C121.453 137.653 122.263 136.843 123.256 136.843H170.093C171.086 136.843 171.896 137.653 171.896 138.646C171.896 139.639 171.086 140.449 170.084 140.449Z" fill="#0E7F3D"/>
<path d="M161.408 146.939H131.931C130.938 146.939 130.128 146.128 130.128 145.135C130.128 144.142 130.938 143.332 131.931 143.332H161.408C162.401 143.332 163.211 144.142 163.211 145.135C163.211 146.128 162.41 146.939 161.408 146.939Z" fill="#0E7F3D"/>
<path d="M125.094 182.043H114.38C113.16 182.043 112.167 181.05 112.167 179.83V169.116C112.167 167.897 113.16 166.904 114.38 166.904H125.094C126.313 166.904 127.306 167.897 127.306 169.116V179.83C127.306 181.05 126.313 182.043 125.094 182.043Z" fill="#0E7F3D"/>
<path d="M164.832 170.998H132.942C132.28 170.998 131.749 170.466 131.749 169.804C131.749 169.142 132.28 168.611 132.942 168.611H164.832C165.494 168.611 166.026 169.142 166.026 169.804C166.026 170.466 165.494 170.998 164.832 170.998Z" fill="#32B768"/>
<path d="M164.832 175.745H132.942C132.28 175.745 131.749 175.213 131.749 174.551C131.749 173.889 132.28 173.358 132.942 173.358H164.832C165.494 173.358 166.026 173.889 166.026 174.551C166.026 175.205 165.494 175.745 164.832 175.745Z" fill="#32B768"/>
<path d="M160.181 180.335H132.942C132.28 180.335 131.749 179.804 131.749 179.142C131.749 178.48 132.28 177.949 132.942 177.949H160.181C160.843 177.949 161.374 178.48 161.374 179.142C161.383 179.795 160.843 180.335 160.181 180.335Z" fill="#32B768"/>
<path d="M125.094 215.396H114.38C113.16 215.396 112.167 214.403 112.167 213.183V202.469C112.167 201.25 113.16 200.257 114.38 200.257H125.094C126.313 200.257 127.306 201.25 127.306 202.469V213.183C127.306 214.403 126.313 215.396 125.094 215.396Z" fill="#0E7F3D"/>
<path d="M164.832 204.368H132.942C132.28 204.368 131.749 203.837 131.749 203.175C131.749 202.513 132.28 201.981 132.942 201.981H164.832C165.494 201.981 166.026 202.513 166.026 203.175C166.026 203.837 165.494 204.368 164.832 204.368Z" fill="#32B768"/>
<path d="M164.832 209.115H132.942C132.28 209.115 131.749 208.584 131.749 207.922C131.749 207.26 132.28 206.729 132.942 206.729H164.832C165.494 206.729 166.026 207.26 166.026 207.922C166.026 208.584 165.494 209.115 164.832 209.115Z" fill="#32B768"/>
<path d="M160.181 213.671H132.942C132.28 213.671 131.749 213.14 131.749 212.478C131.749 211.816 132.28 211.284 132.942 211.284H160.181C160.843 211.284 161.374 211.816 161.374 212.478C161.383 213.131 160.843 213.671 160.181 213.671Z" fill="#32B768"/>
</g>
<path d="M265.432 225.823C259.674 215.37 258.037 186.163 254.126 169.935C247.802 143.672 235.493 145.388 228.908 148.097C228.682 148.193 226.147 143.986 220.067 143.986C212.898 143.986 212.959 147.348 210.833 147.723C209.239 148.001 205.947 146.573 201.382 147.618C196.792 148.672 194.928 152.2 193.395 153.35L187.733 132.226C186.008 125.798 179.397 121.983 172.968 123.707C166.54 125.432 162.724 132.044 164.449 138.472L179.693 195.309L167.637 187.13C162.132 183.393 154.632 184.822 150.895 190.335C147.158 195.841 148.587 203.34 154.101 207.077L187.524 229.769C195.076 235.126 204.875 242.66 208.482 248.009C214.666 257.181 223.865 295.438 223.865 295.438C270.371 306.536 282.296 275.526 282.296 275.526L265.432 225.823Z" fill="#F0C7A9"/>
<path d="M277.157 252.8L271.138 234.046C270.214 231.171 267.497 229.307 264.561 229.542L228.569 232.408C228.124 232.443 227.706 232.539 227.306 232.661L226.827 231.319L224.318 234.594C224.152 234.795 223.987 234.995 223.847 235.213L223.76 235.335L223.769 235.352C223.525 235.735 223.307 236.145 223.142 236.572C222.637 237.913 222.558 239.455 223.046 240.962L229.065 259.716C229.988 262.59 232.706 264.455 235.642 264.219L271.634 261.354C275.737 261.023 278.455 256.824 277.157 252.8Z" fill="#0E7F3D"/>
<path d="M274.343 254.289L279.927 268.575C279.927 268.575 285.702 242.66 271.146 234.045L274.343 254.289Z" fill="black"/>
<path d="M271.338 258.253L237.627 260.944C234.875 261.162 232.322 259.289 231.443 256.415L225.711 237.634C224.483 233.601 227 229.42 230.859 229.115L264.569 226.424C267.322 226.206 269.874 228.079 270.754 230.953L276.486 249.734C277.714 253.767 275.188 257.948 271.338 258.253Z" fill="#32B768"/>
<path d="M229.047 259.716C229.047 259.716 215.946 265.343 219.518 278.862C219.518 278.862 209.5 283.348 207.366 272.782C205.223 262.225 204.753 243.679 222.767 239.777L229.047 259.716Z" fill="black"/>
<path d="M191.705 146.573L199.466 172.914" stroke="black" stroke-width="1.75615" stroke-miterlimit="10" stroke-linecap="round"/>
<path d="M211.53 148.193C211.53 148.193 218.473 158.637 219.553 171.294" stroke="black" stroke-width="1.75615" stroke-miterlimit="10" stroke-linecap="round"/>
<path d="M229.048 148.594C229.048 148.594 235.99 159.038 237.07 171.695" stroke="black" stroke-width="1.75615" stroke-miterlimit="10" stroke-linecap="round"/>
<path d="M45.8367 215.998C52.7402 215.998 58.3366 210.402 58.3366 203.498C58.3366 196.595 52.7402 190.999 45.8367 190.999C38.9333 190.999 33.3369 196.595 33.3369 203.498C33.3369 210.402 38.9333 215.998 45.8367 215.998Z" fill="#0E7F3D"/>
<path d="M289.943 133.002C290.396 131.416 288.097 129.282 284.386 127.514C283.663 127.166 283.236 126.408 283.332 125.606C283.811 121.521 283.219 118.438 281.633 117.985C280.048 117.532 277.914 119.831 276.146 123.542C275.797 124.265 275.039 124.692 274.238 124.596C270.153 124.117 267.069 124.709 266.616 126.295C266.163 127.88 268.463 130.014 272.174 131.782C272.897 132.131 273.323 132.889 273.228 133.69C272.749 137.775 273.341 140.859 274.926 141.312C276.512 141.765 278.646 139.465 280.414 135.754C280.762 135.031 281.52 134.605 282.322 134.7C286.398 135.179 289.482 134.587 289.943 133.002Z" fill="#32B768"/>
<path d="M104.624 9.30999C104.275 7.69851 101.235 6.90584 97.124 7.1149C96.3226 7.15845 95.5909 6.68807 95.2947 5.93896C93.7704 2.11497 91.7843 -0.31531 90.1816 0.033117C88.5701 0.381544 87.7774 3.42157 87.9865 7.53301C88.03 8.33439 87.5597 9.06609 86.8105 9.36225C82.9865 10.8866 80.5563 12.8727 80.9047 14.4754C81.2531 16.0869 84.2932 16.8796 88.4046 16.6705C89.206 16.627 89.9377 17.0973 90.2338 17.8465C91.7582 21.6704 93.7442 24.1007 95.347 23.7523C96.9585 23.4039 97.7512 20.3638 97.5421 16.2524C97.4985 15.451 97.9689 14.7193 98.718 14.4232C102.542 12.9075 104.972 10.9215 104.624 9.30999Z" fill="#E06738"/>
</svg>
