<svg width="32" height="32" viewBox="0 0 32 32" fill="none" xmlns="http://www.w3.org/2000/svg">
<path d="M21.3337 9.33333C21.3337 10.7478 20.7718 12.1044 19.7716 13.1046C18.7714 14.1048 17.4148 14.6667 16.0003 14.6667C14.5858 14.6667 13.2293 14.1048 12.2291 13.1046C11.2289 12.1044 10.667 10.7478 10.667 9.33333C10.667 7.91885 11.2289 6.56229 12.2291 5.5621C13.2293 4.5619 14.5858 4 16.0003 4C17.4148 4 18.7714 4.5619 19.7716 5.5621C20.7718 6.56229 21.3337 7.91885 21.3337 9.33333V9.33333ZM16.0003 18.6667C13.525 18.6667 11.151 19.65 9.40066 21.4003C7.65032 23.1507 6.66699 25.5246 6.66699 28H25.3337C25.3337 25.5246 24.3503 23.1507 22.6 21.4003C20.8496 19.65 18.4757 18.6667 16.0003 18.6667V18.6667Z" stroke="#4B5563" stroke-width="2.5" stroke-linecap="round" stroke-linejoin="round"/>
</svg>
