<svg width="14" height="14" viewBox="0 0 14 14" fill="none" xmlns="http://www.w3.org/2000/svg">
<path d="M7.66683 6.33331V2.99998C7.66683 2.82317 7.59659 2.6536 7.47157 2.52858C7.34654 2.40355 7.17697 2.33331 7.00016 2.33331C6.82335 2.33331 6.65378 2.40355 6.52876 2.52858C6.40373 2.6536 6.3335 2.82317 6.3335 2.99998V6.99998C6.3335 7.17679 6.40373 7.34636 6.52876 7.47139C6.65378 7.59641 6.82335 7.66665 7.00016 7.66665H10.3335C10.5103 7.66665 10.6799 7.59641 10.8049 7.47139C10.9299 7.34636 11.0002 7.17679 11.0002 6.99998C11.0002 6.82317 10.9299 6.6536 10.8049 6.52858C10.6799 6.40355 10.5103 6.33331 10.3335 6.33331H7.66683ZM7.00016 13.6666C3.31816 13.6666 0.333496 10.682 0.333496 6.99998C0.333496 3.31798 3.31816 0.333313 7.00016 0.333313C10.6822 0.333313 13.6668 3.31798 13.6668 6.99998C13.6668 10.682 10.6822 13.6666 7.00016 13.6666Z" fill="#32B768"/>
</svg>
